# xmcd
# 
# Track frame offsets:
#     150
#     12732
#     23401
#     38577
#     51553
#     68970
#     86973
#     99644
#     116875
#     132831
#     148243
#     163922
#     179209
#     189846
#     209701
#     223163
#     237530
#     251123
#     266937
# 
# Disc length: 3781
# 
# Revision: 0
# Processed by: cddbd v1.5.2PL0 Copyright (c) Steve Scherf et al.
# Submitted via: fre:ac v1.1beta1pre4
# 
DISCID=3c0ec313
DTITLE=Shingle Bob - Shingle Bob
DYEAR=2017
DGENRE=Blues
TTITLE0=Come On in My Kitchen
TTITLE1=Black Hand Blues
TTITLE2=Old Fashioned Morphine
TTITLE3=Weary Blues from Waiting
TTITLE4=Last Kind Words Blues
TTITLE5=Dance Me to the End of Love
TTITLE6=Make Me a Pallet on the Floor
TTITLE7=Poor Girl's Blues
TTITLE8=Last Fair Deal Gone Down
TTITLE9=Scattered Leaves
TTITLE10=The L and N Don't Stop Here Anymore
TTITLE11=Wayside/Back in Time
TTITLE12=Slow Down
TTITLE13=Still I Long for Your Kiss
TTITLE14=Careless Love
TTITLE15=Richland Woman Blues
TTITLE16=I Want to Be Loved
TTITLE17=Goodbye California
TTITLE18=Hold On
EXTD=
EXTT0=
EXTT1=
EXTT2=
EXTT3=
EXTT4=
EXTT5=
EXTT6=
EXTT7=
EXTT8=
EXTT9=
EXTT10=
EXTT11=
EXTT12=
EXTT13=
EXTT14=
EXTT15=
EXTT16=
EXTT17=
EXTT18=
PLAYORDER=
